<?xml version="1.0" encoding="utf-8"?>
<!-- Generator: Adobe Illustrator 21.0.0, SVG Export Plug-In . SVG Version: 6.00 Build 0)  -->
<svg version="1.1" xmlns="http://www.w3.org/2000/svg" xmlns:xlink="http://www.w3.org/1999/xlink" x="0px" y="0px"
	 viewBox="0 0 1202.3 341.7" style="enable-background:new 0 0 1202.3 341.7;" xml:space="preserve">
<style type="text/css">
	.st0{display:none;}
	.st1{display:inline;fill:#424143;}
	.st2{opacity:0.75;fill:#FFFFFF;}
	.st3{opacity:0.25;fill:#FFFFFF;}
	.st4{opacity:0.5;fill:#FFFFFF;}
	.st5{fill:none;stroke:#FFFFFF;stroke-miterlimit:10;}
	.st6{fill:none;stroke:#FFFFFF;stroke-miterlimit:10;stroke-dasharray:12.035,12.035;}
</style>
<g id="background" class="st0">
	<rect x="-89.8" y="-237.8" class="st1" width="1386.1" height="847.5"/>
</g>
<g id="crane">
	<g>
		<polygon class="st2" points="49.5,70.5 0,87.4 34.7,41.1 		"/>
		<polygon class="st3" points="107.4,87.4 60.5,124.2 49.5,70.5 34.7,41.1 73.7,41.1 		"/>
		<polygon class="st2" points="217.9,0 96.9,139.7 60.5,124.2 107.4,87.4 		"/>
		<polygon class="st3" points="299,0 160.3,131.6 160.3,179 96.9,139.7 217.9,0 		"/>
		<polygon class="st2" points="160.3,179 110.6,190.9 96.9,139.7 		"/>
		<polygon class="st4" points="200,162.5 160.3,179 160.3,131.6 		"/>
		<polygon class="st2" points="238.5,232.7 185.3,216.9 160.3,179 200,162.5 		"/>
	</g>
	<g>
		<g>
			<path class="st5" d="M254.7,254.1c0,0,1.4,1.5,4.2,4.2"/>
			<path class="st6" d="M267.9,266.3c42,35.4,183.3,129.1,412.7,32.3c242.2-102.2,459-43.5,510.2-27"/>
			<path class="st5" d="M1196.4,273.6c3.7,1.3,5.6,2,5.6,2"/>
		</g>
	</g>
</g>
</svg>
