<?xml version="1.0" encoding="utf-8"?>
<!-- Generator: Adobe Illustrator 21.0.0, SVG Export Plug-In . SVG Version: 6.00 Build 0)  -->
<svg version="1.1" id="Layer_1" xmlns="http://www.w3.org/2000/svg" xmlns:xlink="http://www.w3.org/1999/xlink" x="0px" y="0px"
	 viewBox="0 0 121.9 72.9" style="enable-background:new 0 0 121.9 72.9;" xml:space="preserve">
<style type="text/css">
	.st0{fill:#ADA5A7;}
	.st1{fill:none;}
</style>
<g>
	<path class="st0" d="M55.9,33.6c0,0.5-0.1,0.9-0.2,1.3s-0.4,0.7-0.6,1s-0.6,0.5-1,0.6c-0.4,0.1-0.8,0.2-1.2,0.2h-2.3v-6.3h2.3
		c0.5,0,0.9,0.1,1.2,0.2c0.4,0.1,0.7,0.4,1,0.6s0.5,0.6,0.6,1S55.9,33.1,55.9,33.6z M55.4,33.6c0-0.4-0.1-0.8-0.2-1.2
		c-0.1-0.3-0.3-0.6-0.5-0.9c-0.2-0.2-0.5-0.4-0.8-0.5c-0.3-0.1-0.7-0.2-1-0.2H51v5.6h1.9c0.4,0,0.7-0.1,1-0.2
		c0.3-0.1,0.6-0.3,0.8-0.5c0.2-0.2,0.4-0.5,0.5-0.9C55.4,34.4,55.4,34,55.4,33.6z"/>
	<path class="st0" d="M62.1,36.8h-0.4c0,0-0.1,0-0.1,0c0,0,0-0.1-0.1-0.1l-0.7-1.8h-3.1L57,36.6c0,0,0,0.1-0.1,0.1s-0.1,0-0.1,0
		h-0.3l2.6-6.3h0.5L62.1,36.8z M57.8,34.5h2.8l-1.3-3.2c0-0.1,0-0.1-0.1-0.2c0-0.1,0-0.1-0.1-0.2c0,0.1,0,0.1-0.1,0.2
		c0,0.1,0,0.1-0.1,0.2L57.8,34.5z"/>
	<path class="st0" d="M64.6,34.1v2.6h-0.5v-2.6l-2.3-3.7h0.4c0,0,0.1,0,0.1,0c0,0,0,0,0.1,0.1l1.8,2.9c0,0.1,0.1,0.1,0.1,0.2
		c0,0.1,0.1,0.1,0.1,0.2c0-0.1,0.1-0.1,0.1-0.2c0-0.1,0.1-0.1,0.1-0.2l1.8-2.9c0,0,0-0.1,0.1-0.1c0,0,0.1,0,0.1,0H67L64.6,34.1z"/>
	<path class="st0" d="M75.1,35.7C75.1,35.7,75.2,35.7,75.1,35.7l0.3,0.2c-0.1,0.1-0.3,0.3-0.4,0.4c-0.2,0.1-0.3,0.2-0.5,0.3
		c-0.2,0.1-0.4,0.1-0.6,0.2c-0.2,0-0.5,0.1-0.7,0.1c-0.4,0-0.8-0.1-1.2-0.2c-0.4-0.2-0.7-0.4-0.9-0.7c-0.3-0.3-0.5-0.6-0.6-1
		c-0.1-0.4-0.2-0.8-0.2-1.3c0-0.5,0.1-0.9,0.2-1.3c0.2-0.4,0.4-0.7,0.6-1c0.3-0.3,0.6-0.5,1-0.7s0.8-0.2,1.3-0.2
		c0.2,0,0.4,0,0.6,0.1c0.2,0,0.4,0.1,0.5,0.1c0.2,0.1,0.3,0.1,0.5,0.2s0.3,0.2,0.4,0.3l-0.1,0.2c0,0-0.1,0.1-0.1,0.1
		c0,0-0.1,0-0.1,0s-0.1-0.1-0.2-0.1s-0.1-0.1-0.2-0.2c-0.1-0.1-0.2-0.1-0.3-0.2c-0.1,0-0.3-0.1-0.4-0.1c-0.2,0-0.4,0-0.6,0
		c-0.4,0-0.7,0.1-1.1,0.2c-0.3,0.1-0.6,0.3-0.8,0.6c-0.2,0.2-0.4,0.5-0.5,0.9s-0.2,0.7-0.2,1.2c0,0.4,0.1,0.8,0.2,1.2
		c0.1,0.4,0.3,0.7,0.5,0.9c0.2,0.2,0.5,0.4,0.8,0.6c0.3,0.1,0.6,0.2,1,0.2c0.2,0,0.4,0,0.6,0c0.2,0,0.3-0.1,0.5-0.1s0.3-0.1,0.4-0.2
		C74.8,36,74.9,35.9,75.1,35.7C75,35.7,75,35.7,75.1,35.7C75.1,35.7,75.1,35.7,75.1,35.7z"/>
	<path class="st0" d="M81.7,36.8h-0.5v-3h-4v3h-0.5v-6.3h0.5v3h4v-3h0.5V36.8z"/>
	<path class="st0" d="M88.5,36.8h-0.4c0,0-0.1,0-0.1,0c0,0,0-0.1-0.1-0.1l-0.7-1.8h-3.1l-0.7,1.8c0,0,0,0.1-0.1,0.1s-0.1,0-0.1,0
		h-0.3l2.6-6.3h0.5L88.5,36.8z M84.3,34.5h2.8l-1.3-3.2c0-0.1,0-0.1-0.1-0.2c0-0.1,0-0.1-0.1-0.2c0,0.1,0,0.1-0.1,0.2
		c0,0.1,0,0.1-0.1,0.2L84.3,34.5z"/>
	<path class="st0" d="M90.1,36.4h3v0.4h-3.5v-6.3h0.5V36.4z"/>
	<path class="st0" d="M94.8,36.4h3v0.4h-3.5v-6.3h0.5V36.4z"/>
	<path class="st0" d="M102.9,30.4v0.4h-3.3v2.6h2.8v0.4h-2.8v2.6h3.3v0.4h-3.8v-6.3H102.9z"/>
	<path class="st0" d="M104.7,30.4C104.7,30.4,104.7,30.5,104.7,30.4l4.2,5.6c0-0.1,0-0.2,0-0.3v-5.3h0.4v6.3H109
		c-0.1,0-0.1,0-0.2-0.1l-4.1-5.5c0,0.1,0,0.2,0,0.3v5.3h-0.4v-6.3L104.7,30.4C104.6,30.4,104.6,30.4,104.7,30.4z"/>
	<path class="st0" d="M114,36.5c0.2,0,0.4,0,0.6,0c0.2,0,0.3-0.1,0.5-0.1c0.2,0,0.3-0.1,0.4-0.2c0.1-0.1,0.3-0.1,0.4-0.2v-1.7h-1.2
		c0,0-0.1,0-0.1,0s0,0,0-0.1v-0.3h1.8v2.3c-0.2,0.1-0.3,0.2-0.5,0.3c-0.2,0.1-0.4,0.2-0.5,0.2c-0.2,0.1-0.4,0.1-0.6,0.1
		c-0.2,0-0.5,0-0.7,0c-0.5,0-0.9-0.1-1.3-0.2c-0.4-0.2-0.7-0.4-1-0.7c-0.3-0.3-0.5-0.6-0.6-1c-0.1-0.4-0.2-0.8-0.2-1.3
		s0.1-0.9,0.2-1.3s0.4-0.7,0.6-1c0.3-0.3,0.6-0.5,1-0.7c0.4-0.2,0.8-0.2,1.3-0.2c0.2,0,0.5,0,0.7,0s0.4,0.1,0.6,0.1
		c0.2,0.1,0.3,0.1,0.5,0.2s0.3,0.2,0.4,0.3l-0.1,0.2c0,0-0.1,0.1-0.1,0.1c0,0-0.1,0-0.1,0c0,0-0.1-0.1-0.2-0.1
		c-0.1-0.1-0.2-0.1-0.3-0.2c-0.1-0.1-0.3-0.1-0.5-0.2c-0.2-0.1-0.5-0.1-0.8-0.1c-0.4,0-0.8,0.1-1.1,0.2c-0.3,0.1-0.6,0.3-0.8,0.6
		c-0.2,0.2-0.4,0.5-0.5,0.9s-0.2,0.7-0.2,1.2c0,0.4,0.1,0.9,0.2,1.2c0.1,0.4,0.3,0.7,0.5,0.9c0.2,0.2,0.5,0.4,0.8,0.6
		S113.6,36.5,114,36.5z"/>
	<path class="st0" d="M121.9,30.4v0.4h-3.3v2.6h2.8v0.4h-2.8v2.6h3.3v0.4h-3.8v-6.3H121.9z"/>
</g>
<path class="st1" d="M86.4,9.2c-7.6,0.7-11.9,8.3-12.4,18.6h29.1C100.6,16.7,94.4,8.5,86.4,9.2z"/>
<path class="st1" d="M91.2,60.5c8.2-0.7,12.8-9.6,13-21.2H74.6C76.6,51.7,82.6,61.3,91.2,60.5z"/>
<path class="st0" d="M34.9,32.8c30.2-11.3,16.7-37.2-9-32.1C13.2,3.1,4.3,19.2,19.5,22.3c-4.3-11,3.7-19.1,10.9-18.9
	c11.1,0.4,19.5,22.9-7,28.6c0,0-2,10.3,1.2,10c24.3-2.1,22.2,24.7,3.9,27.1C7.6,71.6,4,51.6,8.6,45.5c-13,5.3-13.1,26,11.6,27.3
	C55.7,74.8,64.8,40.5,34.9,32.8z"/>
<path class="st0" d="M91.2,60.5c-8.6,0.7-14.6-8.8-16.6-21.2H62.7c-0.2,12.9,5.9,24.7,20,25.8c16.9,1.4,28-11.5,31.4-25.8h-9.8
	C104,50.9,99.4,59.8,91.2,60.5z"/>
<path class="st0" d="M86.4,9.2c8-0.7,14.2,7.5,16.7,18.6h12C114.4,16,107.9,5.6,94.5,4.4c-15.4-1.3-26,10.1-30,23.4h9.4
	C74.5,17.5,78.7,9.8,86.4,9.2z"/>
</svg>
