<?xml version="1.0" encoding="utf-8"?>
<!-- Generator: Adobe Illustrator 18.1.1, SVG Export Plug-In . SVG Version: 6.00 Build 0)  -->
<svg version="1.1" id="Layer_1" xmlns="http://www.w3.org/2000/svg" xmlns:xlink="http://www.w3.org/1999/xlink" x="0px" y="0px"
	 viewBox="0 0 365 136.8" enable-background="new 0 0 365 136.8" xml:space="preserve">
<g>
	<g>
		<path fill="#D25927" d="M116.4,73.5c-2.7,4.5-10,9.8-17.3,14.1c-8.9,5.2-19.5,9.8-19.5,9.8s0.4,4.6,0.2,8.4
			c-0.5,9.3-3.7,22.2-11,30.1c-0.8,0.9-1.3,1.1-2.4,0.7c2.8-13.2,2.8-21.9,1.2-35.7C51,95.7,44.2,89.7,42.4,71.8
			c-0.7-7.4-0.5-11.9,6.9-19.5c5.9-6.1,12.1-11.9,19.1-16.4c11-6.9,9.2-8.6,12.1-20.3c0.2-0.3,10.2-7.6,10.6-7.6
			c-2.7,14.8-4.6,33.6,18.7,18c-3.8,7.5-16,15.7-16.6,16c-27.9-3.8-17.8,17.6-16.3,23.1c7.9-6.4,18.7-15.3,27.4-17.8
			c4.7-1.4,8.5,1.7,11.8,5.6C120.9,58.6,120,67.5,116.4,73.5z M75.7,38.2c-22.1,2.3-27.1,38.3-8.5,50.5c-2-12.8-2.4-30.9-0.1-39.9
			c0.8-3.2,9.2-9,9.5-9.9C76.7,38.6,75.7,38.2,75.7,38.2z M102.9,82.4c10.8-7.7,6.7-25.3-3.2-23.8c-4.4,0.7-8.8,3.3-13.1,6.2
			c-4.8,3.2-7,4.6-8.5,11.1c0.2,2.7,0,6.1,0.7,13.8C92.6,88.8,99.3,85.1,102.9,82.4z"/>
	</g>
	<g>
		<path fill="#D25927" d="M275.8,55.4c-5.8,7.2-13.9,12.7-20.2,17.1c-0.8,0.6-1.3,1.5-1.7,1c-1.2-1.7-0.5-13.2-3.9-20.1
			c-4.1,9.1-5.9,17.8-13.2,22.6c-0.5-5.3-2.9-14.5-5-19.7c-3.2-7.6-6.2-15-12.9-19c-8.5-5.1-14.7-6.4-28-6.4
			c-7.2,0-25.7,3.5-25.7,0.7c-0.3-10.2,18.5-27.3,28.8-30.5c5.4-1.7,8.2-1.3,13-0.3c4.7,1,3,16.4-1.2,24.9c-0.7,1.3-0.9,1.6-1.1,1.8
			c-0.2,0.2,0.7,0,2,0.1c7.7,0.3,34.5,2.1,36.3,30.7c3.2-5.6,4-11.6,4.1-18c1.3-1.9,4-3.9,6.7-5.2c3.7,7.7,9.3,19.1,9.3,28.6
			c5.5-2.7,13.2-15.7,13.5-22.6c0.2-4.6-7.4-10.6-13.8-8.8c-3.5,1-5.4,4.2-6.8,6.1c0.3-9.5,11.2-12.2,19.3-10c3.8,1,7,2.3,8.2,5.9
			C285.3,39.7,281.5,48.4,275.8,55.4z M204.8,16.1c0-12.2-13-12.2-20.8-5.7c-7.7,6.5-12.8,14-8,15.9c5.1,2,21.2,2.1,26,1.4
			C206.3,27.1,204.8,16.1,204.8,16.1z"/>
	</g>
	<path fill="#D25927" d="M304.9,66.5c-6.2,7.1-6.4,10.1-13.8,4.2c-3,3.7-5.7,6.6-10.1,2.8c-2.8-2.5-6.1-3.7-9.2-3.6
		c-0.8,0-2.5,0.6-3.1,0.9c-0.4,0.2-0.7,0.5-1.4,0c-0.9-0.7,10.1-9.9,11.4-10.9c1.9-1.6,12.8-9.6,16.1-10.5c-0.5,1.6-2.9,3-2.5,4.5
		c0.7,2.7,1.5,5.4,2.4,8.1c1.8,5.7,5.9,8.1,10.7,3.3C305.2,65.7,305.1,66.1,304.9,66.5 M286.2,57.1c-2,1.9-6.2,5.5-7.6,7.5
		c3.3,1,5.1,2.6,7.7,4.7C289.5,65.7,288.2,61.5,286.2,57.1"/>
	<g>
		<path fill="#D25927" d="M364.9,89.4c-0.9,4.7-3.1,9.9-5.4,13.9c-13.6,24.4-42.6,29.4-49.6,26.5c-5.2-2.2-11-6.3-13.5-12.9
			c-1.3-3.6-2.1-7-1.6-10.8c6.2-8.5,18.9-19.9,26.8-26.8c-3.9-5.7-14.9-23.6-20.2-26.8c-1.6-0.8-3.4,2.4-4.8,2.8
			c-0.8,0.2-1.3,0.2-2.2,0c1.1-2,10.9-10.1,14.6-10.2c4.5,3.9,12.1,15.3,15.5,22.9c1.7-9.8,2.7-17.6,13-24.4c3-2,8.5-2.6,13.3-1.8
			c4.2,0.7,10.5,5.4,10.3,6.1c-2.1,6.6-16.2,13.2-21.2,18.2c-5.1,5.1-8.4,13.2-11.4,20.1c-0.4,1-4.3-0.8-8.2,0.6
			c-7.3,2.6-11.7,9.1-15,14.9c-2.6,4.6,6.2,17.9,16,19.8c8.9,1.7,18.6-2.4,26.3-8.8c9.2-7.6,15-18.4,16.9-27
			C364.9,86.7,365.2,88,364.9,89.4z M339.2,45.2c-8.6,2.8-9.8,16.9-7.6,25.3c2.6-4.9,28.1-17.6,19.9-21.9
			C345.4,45.5,341.3,44.6,339.2,45.2z"/>
	</g>
	<path fill="#D25927" d="M143.5,53.9c-3,2.5-3.8,5-8.6,3.7c-1.7-0.5-3.1-3.3-4.2-0.3c-0.5,1.3,0,2.5,0.4,3.7c0.9,2.8,2,6.8,4.2,8.9
		c2.1,2,6-2.6,7-4.4c2,4.7-10.9,11.3-13.2,8.2c-3.5-4.7-4.6-11.6-5.8-17.2c-0.8,0.3-6.6,4-3.1,0.5c2.5-2.5,4.8-5.8,8.3-6.8
		c0.8,1.7,0.5,3.7,1,5.3c1-1.7,5.5-5.8,7.5-6c1.3,5.3,8.1,0.1,9.2,2.2C145.7,52,144.2,53.3,143.5,53.9z"/>
	<path fill="#D25927" d="M191.5,67.1c-6.2,7.1-6.4,10.1-13.8,4.2c-3,3.7-5.7,6.6-10.1,2.8c-4.2-3.6-8.6-7.2-13.6-2.4
		c3.2-3,10.4-10.2,11.7-11.3c1.9-1.6,12.3-9.6,15.6-10.5c-0.5,1.6-2.9,3-2.5,4.5c0.7,2.7,1.5,5.4,2.4,8.1c1.8,5.7,5.9,8.1,10.7,3.3
		C191.7,66.3,191.6,66.7,191.5,67.1 M172.7,57.8c-2,1.9-6.2,5.5-7.6,7.5c3.3,1,5.1,2.6,7.7,4.7C176,66.4,174.7,62.1,172.7,57.8"/>
	<path fill="#D25927" d="M204.4,55.7c-3.6,0.1-10,0.9-10,0.9s-0.8,0.9-0.4,3.3c0.5,2.8,2,6.7,3.7,9.1c2.3,3.2,4.3-1,6-3.8
		c0.3-0.6,3.6-0.9,3.4-0.5c-1,2.5-3.9,6.1-8.2,8.2c-1.7,0.8-3.5,1.5-4.3,1.6c-2,0.3-3.9-3.9-4.3-4.9c-1.5-3.7-2.9-7.9-2-12.3
		c0.1-1-4.1,0.4-4.7-0.5c0.1-2.5,5.2-3.5,5.5-3.7c1.8-2.3,3.5-8,7.6-10.3c0.9,0.8-2.8,6-1.8,9.8c0.3,1.3,4.1,0.8,8.1-0.3
		c2.3-0.7,4-1.6,5.2-1.9C207.6,53.7,207.1,55.7,204.4,55.7z"/>
	<path fill="#D25927" d="M162.9,66c-1.3,2.3-3.9,5-6.2,6.4c-1.6,0.9-2.9,1.9-4.6,2.5c-1.3,0.4-2.4,0.5-4,0.3
		c-3.2-0.5-7.1-4.6-7.4-9.2c-1.4-6.9,5.6-12.6,12.3-15.8c0.6,0.6-0.2,2.4,2.7,4c1.3,0.8,1.7,1,3.3,0.8c-2.4,2.9-7.1,7-10.1,9.8
		c-3.4,3.1,1.5,6.6,3.4,6.2C156.4,70.1,160.3,67,162.9,66 M148.3,55.7c-0.6-0.1-2.3,1.9-2.5,4c-0.3,2.3,1.2,4.8,1.4,5.2
		c1.6-1.7,4.7-6.3,3.9-7.6C150.7,56.6,149.1,55.9,148.3,55.7z"/>
</g>
<rect x="88.2" y="80.1" fill="#FFFFFF" fill-opacity="0.65" stroke="#414042" stroke-width="0.25" stroke-miterlimit="10" width="246.3" height="27.6"/>
<g>
	<path fill="#383838" d="M111.3,99.8c0,0.2-0.1,0.3-0.6,0.5c-3.4,1.5-7.2,2.5-11,2.5c-2.5,0-6.4-0.6-6.4-4c0-2.5,2-5,4-6.7
		c1.7-1.4,4.6-3.5,8.2-3.5c1,0,2.9,0.2,3.5,0.9c0.3,0.4,0.6,1.3,0.6,1.6c0,0.1,0,0.3-0.2,0.3c-0.1,0-0.6-0.3-0.7-0.4
		c-1.6-0.9-3.7-1-4.3-1c-1.1,0-3.3,0.1-5.2,1.8c-1,0.9-2.9,3.3-2.9,6c0,3.3,3.5,3.5,5.5,3.5c2.8,0,5.5-0.6,7.9-1.7
		c0.3-0.2,0.9-0.4,1-0.4c0.2,0,0.3,0.2,0.3,0.2C111.2,99.5,111.3,99.7,111.3,99.8z"/>
	<path fill="#383838" d="M120.6,94.7c1,0,1.2,0.7,1.6,2.3c0.7,3.1,1.1,5,1.5,5.5c0.1,0.2,0.2,0.2,0.5,0.2c0.3,0,0.3,0.1,0.3,0.3
		c0,0.2-0.2,0.4-0.7,0.7c-0.3,0.2-1.2,0.8-1.8,0.8c-0.3,0-0.4-0.2-0.7-1.2c-0.2-0.8-1.1-4.4-1.3-5.1c-0.4-1.4-0.5-1.7-1-1.7
		c-1.2,0-3.6,3.9-3.9,5.9c0,0.3-0.1,0.4-0.3,0.4c-0.4,0-0.9-0.2-1.4-0.4c-0.4-0.1-0.4-0.2-0.4-0.5c0-0.3,0.1-1.6,0.1-1.9
		c0.1-1.5,0.1-3.4,0.1-5.1c0-0.7-0.1-6.4-0.3-7.4c0-0.1-0.2-0.4-0.2-0.5c0-0.3,0.3-0.3,0.4-0.3c0.6,0,1.7,0.4,2.3,0.8
		c0.4,0.2,0.4,0.3,0.4,0.8c0,0.3-0.3,4.5-0.3,5.3c-0.1,1.9-0.2,4.3-0.2,6.4C117,96.1,119.3,94.7,120.6,94.7z"/>
	<path fill="#383838" d="M129,102.5c0,0.3-0.1,0.3-0.4,0.3c-0.4,0-1.4-0.3-1.7-0.5c-0.2-0.1-0.2-0.3-0.2-0.5c0-0.6,0.1-3.1,0.1-3.6
		c0-0.8,0-2.3-0.3-2.9c-0.1-0.2-0.2-0.3-0.2-0.5c0-0.1,0-0.2,0.3-0.2c0.6,0,1.4,0.2,2,0.5c0.5,0.2,0.6,0.3,0.6,0.8
		c0,0.1-0.1,2.3-0.2,2.6c0,1.3-0.1,1.8-0.1,2.6L129,102.5z M129.1,92.6c0,0.2-0.1,0.3-0.3,0.3c-0.1,0-1.2-0.3-1.7-0.5
		c-0.3-0.1-0.3-0.4-0.3-0.6v-1c0-0.2,0-0.8,0-0.9c0-0.2,0-0.3,0.2-0.3c0.1,0,1.8,0.3,2,0.7c0,0.1,0,0.7,0,1.1L129.1,92.6z"/>
	<path fill="#383838" d="M140.4,94.8c1.1,0,1.2,0.5,1.7,3.2c0.1,0.7,0.5,2.9,0.9,3.3c0.2,0.2,0.3,0.2,0.6,0.3c0.1,0,0.2,0.1,0.2,0.2
		c0,0.5-2.3,1.3-2.5,1.3c-0.5,0-0.5-0.2-1-2.6c-0.4-1.8-0.6-2.7-0.8-3.2c-0.1-0.3-0.2-0.6-0.7-0.6c-0.7,0-3,2.4-3.9,5.3
		c-0.2,0.6-0.2,0.7-0.5,0.7c-0.1,0-0.8-0.1-1.2-0.3c-0.3-0.1-0.4-0.2-0.4-0.5c0,0,0-1.2,0.1-1.5c0-0.9,0.1-1.9,0.1-2.8
		c0-1-0.1-1.6-0.1-1.8c0-0.1-0.3-0.6-0.3-0.7c0-0.2,0.2-0.3,0.3-0.3c0.2,0,1.3,0.1,2.1,0.4c0.4,0.2,0.4,0.5,0.4,0.9
		c0,0.7-0.4,3.6-0.4,4.2C136.6,96.5,139.1,94.8,140.4,94.8z"/>
	<path fill="#383838" d="M156,97.6c0.1,0,0.1,0.1,0.1,0.2c0,0.3-0.1,0.3-0.5,0.4c-0.3,0.1-5.9,1-7.7,1.3c0,0.4,0.1,1.1,0.6,1.6
		c0.8,0.7,2.2,0.8,2.9,0.8c1.8,0,4.1-0.6,4.8-0.9c0.1,0,0.7-0.3,0.9-0.3c0.2,0,0.3,0.2,0.3,0.4c0,0.2-0.1,0.3-1,0.6
		c-1.4,0.5-4.4,1.2-6.9,1.2c-2.7,0-4.2-0.6-4.2-2.6c0-2.2,2.4-5.6,7.6-5.6c2.8,0,2.9,1.3,2.9,2.8L156,97.6z M152.5,98
		c0.8-0.1,0.8-0.1,0.8-0.9c0-0.1,0-1.6-1.7-1.6c-0.6,0-1.5,0.2-2.3,0.8c-1,0.8-1.2,1.8-1.3,2.4C150.6,98.4,151.5,98.2,152.5,98z"/>
	<path fill="#383838" d="M166.4,102c-1.3,0.7-2.7,0.8-4.1,0.8c-1.8,0-2.6-0.3-2.9-0.4c-0.6-0.3-0.6-1.3-0.6-1.5c0-0.3,0-0.5,0.3-0.5
		c0.1,0,0.6,0.3,0.8,0.4c1.9,1,3.2,1.1,3.9,1.1c0.5,0,2.1,0,2.1-1.2c0-0.9-0.8-1-3.2-1.3c-2.2-0.3-3.6-0.4-3.6-1.8
		c0-1.8,2.6-2.9,5.3-2.9c0.7,0,2.7,0,3.2,0.5c0.2,0.2,0.5,0.6,0.5,1.1c0,0.4-0.2,0.5-0.3,0.5c-0.1,0-0.5-0.3-0.6-0.4
		c-0.5-0.3-1.6-0.9-3.5-0.9c-1.2,0-2.2,0.3-2.2,1.1c0,0.8,1.5,1,3.2,1.2c2.3,0.2,3.7,0.4,3.7,1.8C168.1,99.9,167.9,101.1,166.4,102z
		"/>
	<path fill="#383838" d="M180.9,97.6c0.1,0,0.1,0.1,0.1,0.2c0,0.3-0.1,0.3-0.5,0.4c-0.3,0.1-5.9,1-7.7,1.3c0,0.4,0.1,1.1,0.6,1.6
		c0.8,0.7,2.2,0.8,2.9,0.8c1.8,0,4.1-0.6,4.8-0.9c0.1,0,0.7-0.3,0.9-0.3c0.2,0,0.3,0.2,0.3,0.4c0,0.2-0.1,0.3-1,0.6
		c-1.4,0.5-4.4,1.2-6.9,1.2c-2.7,0-4.2-0.6-4.2-2.6c0-2.2,2.4-5.6,7.6-5.6c2.8,0,2.9,1.3,2.9,2.8L180.9,97.6z M177.3,98
		c0.8-0.1,0.8-0.1,0.8-0.9c0-0.1,0-1.6-1.7-1.6c-0.6,0-1.5,0.2-2.3,0.8c-1,0.8-1.2,1.8-1.3,2.4C175.5,98.4,176.3,98.2,177.3,98z"/>
	<path fill="#383838" d="M194,96.7c-0.7,2.6-1.5,5.2-2.7,7.7c-0.2,0.3-0.6,1.2-1.1,1.2c-0.7,0-2.2-1.7-2.2-2.1
		c0-0.1,0.1-0.3,0.2-0.3c0.1,0,0.3,0.1,0.5,0.2c0.1,0.1,0.3,0.1,0.3,0.1c0.5,0,1.6-1.5,2.8-4.1c1.4-3.1,2.5-7.3,2.7-8.2
		c-0.6-0.9-0.8-1.2-1.7-1.6c-0.7-0.3-0.8-0.3-0.8-0.6c0-0.4,0.3-0.4,0.5-0.4c0.3,0,3.7,0.2,4.2,0.9c0.5,0.6,4.3,10.1,4.9,10.1
		c0.1,0,0.4-0.4,0.5-0.6c1.6-2.7,1.9-3.4,5.1-9.3c0.5-0.9,0.5-1,0.8-1c0,0,1.9,0.2,2,0.7c0,0.1,0.1,1,0.1,1.2
		c0.3,3.5,0.8,6.8,1.4,9.5c0.2,1.1,0.4,1.1,0.7,1.2c0.4,0.1,0.5,0.1,0.5,0.3c0,0.4-2.3,1.1-2.8,1.1c-0.5,0-0.6-0.4-0.7-1.2
		c-0.9-4.9-0.9-5.1-1.1-6.3c-0.4-2.7-0.4-3-0.6-3.8c-0.2,0.3-3.6,6.3-4.3,7.5c-1.1,1.7-1.2,1.9-1.4,2.4c-0.3,0.5-0.7,1.2-1.2,1.2
		c-0.6,0-1.1-1-3.1-5.5c-1.2-2.5-1.5-3.2-2.4-4.9C194.9,93,194.1,96.1,194,96.7z"/>
	<path fill="#383838" d="M225.3,95.3c0.2,0,0.2,0.1,0.2,0.3c0,0.2,0,2.2,0.4,4.3c0.3,1.4,0.4,1.5,0.7,1.5c0.2,0,0.3,0.1,0.3,0.3
		c0,0.3-1.8,1.4-2.5,1.4c-0.3,0-0.5-0.1-0.9-2.6c-1.7,1.4-3.7,2.3-5.9,2.3c-3.1,0-3.5-1.6-3.5-2.3c0-2.6,4.2-5.7,6.8-5.7
		c1.3,0,2.1,0.9,2.4,1.2C223.7,95.8,225.2,95.3,225.3,95.3z M222.9,96.5c-0.3-0.4-1.4-0.8-2.4-0.8c-2.4,0-3.6,2.1-3.6,3.8
		c0,0.2,0,0.9,0.4,1.4c0.5,0.5,1.2,0.7,1.8,0.7c1.5,0,2.5-0.7,2.9-0.9c1.3-0.8,1.3-1.2,1.3-1.5c0-0.2-0.1-0.6-0.1-0.8
		C223.2,97.3,223.1,96.7,222.9,96.5z"/>
	<path fill="#383838" d="M234.4,95.9c-0.1-1.7,1.7-2,1.8-2c0.3,0,0.3,0.2,0.3,0.6c0,0.2,0.1,2.2,1.2,2.8c0.4,0.2,0.4,0.2,0.4,0.3
		c0,0.4-1.5,0.6-1.9,0.6c-0.5,0-1.1-0.1-1.6-1.3c-1.2,1.5-2.6,3.8-3,5.3c-0.1,0.4-0.1,0.6-0.4,0.6c0,0-1.7-0.1-1.7-0.7
		c0-0.3,0.1-1.4,0.1-1.6c0-0.7,0.1-1.8,0.1-2.6c0-0.6-0.1-1.8-0.2-2.1c0,0-0.2-0.5-0.2-0.5c0-0.3,0.3-0.3,0.4-0.3
		c0.2,0,1.2,0.1,2.1,0.6c0.2,0.1,0.3,0.2,0.3,0.5c0,0.1-0.3,3.2-0.3,3.8C232.6,98.3,233.3,97.4,234.4,95.9z"/>
	<path fill="#383838" d="M242.9,95.4c0.5,0,1,0,1.6,0c0.2,0,0.9-0.1,1-0.1c0.1,0,0.3,0,0.3,0.3c0,0.2-0.1,0.4-0.8,0.5
		c-0.1,0-1.3,0.3-2.2,0.3c-0.1,1.3-0.1,3.4-0.1,3.6c0,0.6,0,1.1,0,1.7c0,0.1,0,0.6,0,0.8c0,0.4-0.1,0.4-0.3,0.4
		c-0.4,0-1.3-0.2-1.7-0.4c0,0-0.3-0.2-0.3-0.5c0-0.1,0.1-1.6,0.1-1.9c0-0.6,0.1-3.1,0.2-3.6c0,0-1.6,0-1.8,0
		c-0.4-0.2-0.7-1.1-0.7-1.3c0-0.1,0-0.2,0.2-0.2c0.2,0,0.6,0.1,0.9,0.1c0.7,0.1,1,0.1,1.4,0.2c0-0.6-0.1-3-0.1-3.4
		c0-0.2-0.1-1-0.1-1c0-0.2,0.2-0.3,0.4-0.3c0.2,0,2.3,0.3,2.3,1.2L242.9,95.4z"/>
	<path fill="#383838" d="M249.7,102.5c0,0.3-0.1,0.3-0.4,0.3c-0.4,0-1.4-0.3-1.7-0.5c-0.2-0.1-0.2-0.3-0.2-0.5
		c0-0.6,0.1-3.1,0.1-3.6c0-0.8,0-2.3-0.3-2.9c-0.1-0.2-0.2-0.3-0.2-0.5c0-0.1,0-0.2,0.3-0.2c0.6,0,1.4,0.2,2,0.5
		c0.5,0.2,0.6,0.3,0.6,0.8c0,0.1-0.1,2.3-0.2,2.6c0,1.3-0.1,1.8-0.1,2.6L249.7,102.5z M249.8,92.6c0,0.2-0.1,0.3-0.3,0.3
		c-0.1,0-1.2-0.3-1.7-0.5c-0.3-0.1-0.3-0.4-0.3-0.6v-1c0-0.2,0-0.8,0-0.9c0-0.2,0-0.3,0.2-0.3c0.1,0,1.8,0.3,2,0.7
		c0,0.1,0,0.7,0,1.1L249.8,92.6z"/>
	<path fill="#383838" d="M263.8,95.3c0.2,0,0.2,0.1,0.2,0.3c0,0.2,0,2.2,0.4,4.3c0.3,1.4,0.4,1.5,0.7,1.5c0.2,0,0.3,0.1,0.3,0.3
		c0,0.3-1.8,1.4-2.5,1.4c-0.3,0-0.5-0.1-0.9-2.6c-1.7,1.4-3.7,2.3-5.9,2.3c-3.1,0-3.5-1.6-3.5-2.3c0-2.6,4.2-5.7,6.8-5.7
		c1.3,0,2.1,0.9,2.4,1.2C262.2,95.8,263.7,95.3,263.8,95.3z M261.5,96.5c-0.3-0.4-1.4-0.8-2.4-0.8c-2.4,0-3.6,2.1-3.6,3.8
		c0,0.2,0,0.9,0.4,1.4c0.5,0.5,1.2,0.7,1.8,0.7c1.5,0,2.5-0.7,2.9-0.9c1.3-0.8,1.3-1.2,1.3-1.5c0-0.2-0.1-0.6-0.1-0.8
		C261.7,97.3,261.6,96.7,261.5,96.5z"/>
	<path fill="#383838" d="M270.6,99c0,1,0,2.4,0.1,3.1c0,0.1,0,0.6,0,0.6c0,0.2-0.1,0.2-0.3,0.2c-0.4,0-1.8-0.3-2-0.8
		c-0.1-0.2-0.1-0.4,0-1.9c0.1-2.5,0.2-8.9-0.1-12.1c0-0.3-0.1-0.6-0.2-0.7c-0.1-0.3-0.2-0.3-0.2-0.4c0,0,0-0.3,0.3-0.3
		c0.4,0,1.7,0.4,2.1,0.6c0.7,0.3,0.7,0.5,0.7,0.9c0,0.3,0,0.5-0.2,2.4c0,0.6-0.1,1.2-0.2,3.5C270.7,95.9,270.6,96.6,270.6,99z"/>
	<path fill="#383838" d="M287.8,96.9c0.3,0,1.4,0,1.8,0c0.1,0,2,0,2.7-0.1c0.1,0,0.5,0,0.6,0c0.2,0,0.5,0.1,0.5,0.4
		c0,0.1-0.1,0.2-0.5,0.3c-1.6,0.2-3.4,0.3-5.6,0.5c-1.2,2-2.5,4-4.1,5.7c-0.4,0.4-1.4,1.5-2,1.5c-0.9,0-2.5-1.8-2.5-2
		c0-0.1,0.1-0.3,0.3-0.3c0.1,0,0.6,0.4,1.2,0.4c0.9,0,2.1-1.2,2.9-2.1c0.4-0.4,1.4-1.5,2.6-3.2c-1.7,0.1-1.9,0.1-2.3,0.1
		c-1,0-1.2-0.1-1.5-0.5c-0.4-0.5-0.6-1.2-0.6-1.5c0-0.1,0.1-0.2,0.2-0.2c0,0,0.8,0.3,1,0.4c1.5,0.4,3.5,0.5,4.2,0.5
		c0.9-1.4,2.8-4.1,3.8-6.2c-0.6-0.6-1.4-1.1-2.4-1.2c-0.7-0.1-0.7-0.1-0.7-0.3c0-0.3,0.3-0.3,0.9-0.3c0.9,0,4.2,0.2,4.9,1
		c0.5,0.5,0.9,1.5,2.3,4.6c1,2.2,2.6,5.2,3.2,6.2c0.3,0.6,0.4,0.7,0.8,0.7c0.3,0,0.5,0,0.5,0.2c0,0.5-2,1.3-2.6,1.3
		c-0.5,0-0.8-0.4-1.3-1.4c-0.6-1.1-2.9-6-3.4-7c-0.6-1.3-0.7-1.4-1.6-3c-0.6,1.2-1.4,2.6-2.2,3.9L287.8,96.9z"/>
	<path fill="#383838" d="M306.8,95.9c-0.1-1.7,1.7-2,1.8-2c0.3,0,0.3,0.2,0.3,0.6c0,0.2,0.1,2.2,1.2,2.8c0.4,0.2,0.4,0.2,0.4,0.3
		c0,0.4-1.5,0.6-1.9,0.6c-0.5,0-1.1-0.1-1.6-1.3c-1.2,1.5-2.6,3.8-3,5.3c-0.1,0.4-0.1,0.6-0.4,0.6c0,0-1.7-0.1-1.7-0.7
		c0-0.3,0.1-1.4,0.1-1.6c0-0.7,0.1-1.8,0.1-2.6c0-0.6-0.1-1.8-0.2-2.1c0,0-0.2-0.5-0.2-0.5c0-0.3,0.3-0.3,0.4-0.3
		c0.2,0,1.2,0.1,2.1,0.6c0.2,0.1,0.3,0.2,0.3,0.5c0,0.1-0.3,3.2-0.3,3.8C305,98.3,305.6,97.4,306.8,95.9z"/>
	<path fill="#383838" d="M315.3,95.4c0.5,0,1,0,1.6,0c0.2,0,0.9-0.1,1-0.1c0.1,0,0.3,0,0.3,0.3c0,0.2-0.1,0.4-0.8,0.5
		c-0.1,0-1.3,0.3-2.2,0.3c-0.1,1.3-0.1,3.4-0.1,3.6c0,0.6,0,1.1,0,1.7c0,0.1,0,0.6,0,0.8c0,0.4-0.1,0.4-0.3,0.4
		c-0.4,0-1.3-0.2-1.7-0.4c0,0-0.3-0.2-0.3-0.5c0-0.1,0.1-1.6,0.1-1.9c0-0.6,0.1-3.1,0.2-3.6c0,0-1.6,0-1.8,0
		c-0.4-0.2-0.7-1.1-0.7-1.3c0-0.1,0-0.2,0.2-0.2c0.2,0,0.6,0.1,0.9,0.1c0.7,0.1,1,0.1,1.4,0.2c0-0.6-0.1-3-0.1-3.4
		c0-0.2-0.1-1-0.1-1c0-0.2,0.2-0.3,0.4-0.3c0.2,0,2.3,0.3,2.3,1.2L315.3,95.4z"/>
	<path fill="#383838" d="M326.5,102c-1.3,0.7-2.7,0.8-4.1,0.8c-1.8,0-2.6-0.3-2.9-0.4c-0.6-0.3-0.6-1.3-0.6-1.5c0-0.3,0-0.5,0.3-0.5
		c0.1,0,0.6,0.3,0.8,0.4c1.9,1,3.2,1.1,3.9,1.1c0.5,0,2.1,0,2.1-1.2c0-0.9-0.8-1-3.2-1.3c-2.2-0.3-3.6-0.4-3.6-1.8
		c0-1.8,2.6-2.9,5.3-2.9c0.7,0,2.7,0,3.2,0.5c0.2,0.2,0.5,0.6,0.5,1.1c0,0.4-0.2,0.5-0.3,0.5c-0.1,0-0.5-0.3-0.6-0.4
		c-0.5-0.3-1.6-0.9-3.5-0.9c-1.2,0-2.2,0.3-2.2,1.1c0,0.8,1.5,1,3.2,1.2c2.3,0.2,3.7,0.4,3.7,1.8C328.2,99.9,328,101.1,326.5,102z"
		/>
</g>
<g opacity="0.8">
	<g>
		<path fill="#FFFFFF" d="M15.1,23.5c-2.3,0.4-3.5,0.6-6.7,1.3c0.9,0.6,1,1,0.8,2.1c-0.1,0.8-0.2,2-0.2,3c1-0.6,2.8-1.6,4.6-2.5
			c0.8-0.4,1.1-0.6,1.3-0.4c0.2,0.2,0.1,0.5-1,1.3c-3.9,2.8-5.4,4.1-6,4.9c-0.7,1.2-1.3,0.9-1.7-0.1c-0.5-1.1-0.5-1.4-0.2-1.6
			c0.9-0.8,1.4-1.3,1.5-1.8c0.5-1.8,0.3-3.5,0-4.6c-1.5,0.3-3.2,0.3-3.9,0.1c-1.5-0.3-1.5-0.8-0.3-0.9c3-0.3,8-1.3,9.8-2
			c1.8-0.6,2.8-0.6,3.9-0.1C17.5,22.6,17.5,23.1,15.1,23.5z M27.2,44.6c-2.3-0.7-6.4-0.7-10.5-0.5c-3.3,0.2-6.5,0.6-8.6,1
			C6,45.6,5.5,45.4,5,45.1c-1.6-1-1.4-1.4,0.1-1.3c1.1,0.1,6-0.3,10.7-0.8l0.1-3.5c-1.8,0.2-3.4,0.2-4,0.2c-1.5-0.1-1.7-0.9-0.9-0.9
			c0.8-0.1,2.9-0.3,4.9-0.6c0-1.7,0-2.4-0.2-2.9c-2.4,0.3-3.3,0.3-3.8,0.2c-1.6-0.4-1.5-0.9-0.8-0.9c3.8-0.4,7.1-1,9.5-1.7
			c0.6-0.2,1.6-0.2,2.3,0.1c0.6,0.3,0.5,0.9-0.6,1.1c-1.9,0.4-3,0.6-4.9,0.9c0.5,0.3,0.6,0.7,0.5,1.2c-0.1,0.4-0.2,1-0.3,1.7
			c1.3-0.1,2.3-0.3,2.6-0.4c0.9-0.2,1.9-0.1,2.3,0.1c0.7,0.5,0.5,0.8-0.1,1c-1.1,0.2-3,0.5-4.9,0.7l-0.1,3.5
			c3.4-0.3,6.4-0.6,7.1-0.7c2.3-0.3,3.7,0.1,4.9,1C31.3,44.3,30.7,45.6,27.2,44.6z M11.8,20.4c-0.5-0.3-1.8-1.3-2.5-1.9
			c-0.5-0.5-0.6-0.9,0.3-0.9c2.4-0.1,3.6,0.7,3.8,2.1C13.6,20.3,12.9,21,11.8,20.4z M27.4,22.3c-0.1,1.9-0.1,3.2,0.1,6.2
			c0.1,1.4-0.2,2.7-0.9,4c-0.5,0.9-1,0.9-1.5,0c-0.5-0.6-1.2-1.5-1.7-2c-0.6-0.6-0.4-0.9,0.2-0.7c1.2,0.3,1.6,0.3,1.7-0.3
			c0.5-2,0.4-6.9-0.1-9.2c-0.1-0.5-0.6-0.6-1.8-0.4c-1.4,0.2-2.2,0.3-3.3,0.3c0,1.3-0.1,2.3-0.1,3.2c1.8-0.6,2.6-0.8,3.2-0.6
			c1.2,0.2,0.9,0.8,0,1c-1.1,0.3-1.9,0.3-3.3,0.1c-0.1,1.1-0.2,1.9-0.4,2.8c1.8-0.4,3.1-0.7,3.6-0.6c1.1,0.1,1.1,0.7,0.3,1
			c-1.8,0.6-2.6,0.6-4.1,0.1c-0.7,2.4-2.3,4.7-4.9,6c-0.8,0.4-0.9,0.1-0.3-0.6c2.3-2.3,3.8-4.6,4.2-8.2c0.3-2.1,0.1-3.8-0.2-4.4
			c-0.6-1.2-0.5-1.4,1.6-0.7c2,0,4-0.6,4.8-1.1c0.8-0.5,1.2-0.6,2.4,0.1c1.4,0.9,1.5,1.1,0.8,2C27.6,21,27.4,21.5,27.4,22.3z"/>
	</g>
	<g>
		<path fill="#FFFFFF" d="M24.3,82.6c-0.9,0.3-3.7-0.1-8.2-2c-4-1.7-6.3-2.6-7.1-2.9c-2-0.7-3.9-0.5-5.5,0.2
			c-0.9,0.4-1.1,0.3-1.8-0.5c-0.7-0.9-0.7-1.1,0.6-1.4c1-0.2,2-0.3,3.6-0.3c0.3,0,0.7,0,1,0.1c0-1.6-0.3-2.8-0.7-3.5
			c-0.9-1.6-1-2.5,0-4.8c0.4-0.8,0.2-1-0.9-0.5c-0.9,0.3-2.2,0.3-2.9,0.1C2,67,1.9,66.6,2.7,66.4c1-0.2,3-1.1,3.3-1.4
			c0.5-0.4,0.8-0.5,2.3,0.4c1.1,0.7,1.3,1.3,0.6,1.9c-2.1,1.8-2.1,3.5-1.5,4.6c0.9,1.7,1,2.6,0.5,4.2c0.7,0.1,1.5,0.4,2.6,0.8
			c8.7,3,11.3,3.1,20.9,2.3c1-0.1,1.2,0.6,0.4,0.8C29.9,80.8,26.8,81.8,24.3,82.6z M7.6,60.6c-0.9-0.6-1.8-1.6-2.9-2.9
			c-0.5-0.6-0.5-1,0.8-0.9c2.3,0.2,3.6,1.1,3.8,2.6C9.3,60.6,8.6,61.2,7.6,60.6z M26.3,60.8c-2.3-0.1-5.1,0.2-7.6,0.5
			c0.9,0.9,0.8,1.1,0.3,1.6c-0.5,0.4-1.1,1.3-1.7,2.1c1.5-0.2,3.1-0.6,3.9-0.9c1-0.4,1.5-0.5,2.5,0.1c1.4,0.7,1.5,1.2,0.9,2.2
			c-0.5,0.7-0.3,4.4-0.2,5.8c0.2,2.2,0.1,3.3-0.3,4.5c-0.8,2-1.3,1.9-1.8-0.1c-0.4-1.2-0.5-1.3-3.2-1c-1.3,0.1-2.5,0.3-3.5,0.5
			c-0.1,1.6-0.8,1.4-1.2,0.4c-0.5-1.1-0.6-1.6-0.3-2.6c0.4-1.7,0.3-7.1-0.1-7.9c-0.5-0.9-0.2-1.3,0.8-0.8c0.5,0,1,0,1.5-0.1
			c1-1.7,1.3-2.9,1-3.6c-0.8,0.1-1.5,0.2-2.1,0.4c-1.6,0.4-2,0.4-3,0.1c-1.1-0.3-1-0.8,1-0.9c0.4-0.1,9.3-1.5,10.1-1.7
			c2.1-0.6,3.5-0.6,4.4,0C28.9,60.1,29,60.8,26.3,60.8z M16,58.5c-0.5-0.6-1-1.5-1.4-2.4c-0.3-0.9-0.1-1.1,0.6-0.9
			c1.7,0.6,2.1,1.1,2.3,2.2C17.8,58.6,16.7,59.3,16,58.5z M22.5,66.8c-0.1-1.5-0.3-1.7-1.9-1.5c-2.9,0.5-3.9,0.6-5.1,0.6
			c0.1,0.5,0.2,1.4,0.2,2.5c3.5-1.1,4-1,4.7-0.8c0.8,0.2,0.7,0.8-0.6,1.1c-1.4,0.3-2.6,0.5-4.1,0.3c0,0.8,0,1.7,0,2.5
			c3.8-0.8,4-0.9,4.6-0.7c1,0.3,0.7,0.9-0.2,1c-1.6,0.3-2.6,0.5-4.5,0.3c0,1,0,2.1,0,3.1c5.1-1.1,5.4-1.1,6.2-0.5
			c0.3,0.2,0.6,0.3,0.7-0.8C22.7,71.7,22.7,68,22.5,66.8z M20.3,58.6c-0.5,0.3-0.9,0-0.3-0.7c1.8-2.2,2.4-3.1,2.2-3.8
			c-0.4-1.3,0.1-1.4,2-0.6c1.4,0.6,1.6,1.4,0.3,2.2C24.1,56,21.9,57.5,20.3,58.6z"/>
	</g>
	<g>
		<path fill="#FFFFFF" d="M17.2,101.1c-0.6,0-1.5,0.1-2.7,0.2c-0.9,1.1-1.9,2.3-2.9,3.3c1.1-0.2,2-0.5,2.6-0.7
			c0.6-0.3,1-0.2,1.7,0.4c0.9,0.9,0.8,1.2-0.2,1.5c-0.8,0.3-1.6,0.9-3.4,2.3c0.3,0.4,0.5,0.9,0.7,1.5c2.8-1.2,3.2-1.1,3.4-0.9
			c0.2,0.2-0.3,0.6-1.3,1c-0.7,0.3-1.3,0.6-1.9,0.9c0.5,2.5,0.3,5.9-1,7.7c-1.1,1.4-1.4,1.3-1.7,0.7c-0.3-0.5-1-1.4-1.9-2.1
			c-0.6-0.4-0.6-0.7,0.2-0.7c1.6,0.1,2.5-0.3,2.7-1.1c0.3-1.1,0.5-2.6,0.4-3.9c-2.3,1.1-3.7,1.9-4.4,2.3c-0.8,0.5-1.4,0.6-2.3-0.2
			c-0.9-0.8-0.7-1.2,0.3-1.2c1.1,0,2.8-0.5,6.3-2c-0.1-1-0.5-1.6-0.8-1.8c-0.8-0.5-0.5-1.1,0.2-0.9c0.2,0.1,0.4,0.2,0.6,0.3
			c0.9-0.9,1.5-1.6,2-2.3c0.2-0.2,0.1-0.4-0.3-0.3c-1,0.3-2.4,0.7-3.4,1.1c-3,3-6.2,5.5-9.3,6.4c-1,0.3-1.1-0.3-0.4-0.7
			c3.1-1.9,5.6-3.7,8-5.9c-0.9-0.6-0.8-0.8,0.1-1c0.3,0,0.7-0.1,1-0.1c1-1,2.1-2.2,3.2-3.5c-2.1,0.3-6.2,1.2-7.6,1.6
			c-1.1,0.3-1.8,0-2.7-0.6c-0.9-0.7-0.8-1,0.3-1c1.4,0,4.9-0.3,7.9-0.7l0.1-3c-1.6,0.2-2.8,0.1-3.3-0.1c-0.8-0.3-0.9-0.7-0.1-0.8
			c0.9-0.1,2.2-0.3,3.4-0.6c0.1-3.9,0-4.8-0.7-5.6c-0.5-0.7-0.3-1.2,1.6-0.6c1.6,0.5,1.6,1,1.4,1.6c-0.2,0.6-0.5,2.8-0.7,4.2
			c1.3-0.3,1.8-0.3,2.4-0.1c0.6,0.1,0.9,0.6-0.1,1.1c-0.5,0.3-1.2,0.5-2.5,0.7l-0.3,3c0.6-0.1,1.1-0.2,1.6-0.2
			c2.2-2.7,3.1-4.4,3.1-5.3c0.1-0.8,0.4-1,1.5-0.1c0.9,0.8,0.8,1.3,0.4,1.6c-0.5,0.3-1.2,1.2-3,3.4c2.4-0.5,2.8-0.3,3.4,0.3
			C19.2,100.6,19.2,101,17.2,101.1z M25.9,116c-1.1-1.1-2.3-2.6-3.4-4.2c-1.8,2.3-4.5,3.3-7,3.4c-0.8,0-0.9-0.4-0.1-0.7
			c2.6-1,4.9-2.3,6.1-4.1c-0.5-0.8-1-1.7-1.5-2.5c-0.5-0.9-1.5-2.1-2-2.5c-0.4-0.3-0.3-0.7,0.2-0.7c0.5-0.1,1.1,0.1,1.6,0.9
			c0.9,1.3,1.7,2.4,2.4,3.3c0.7-1.9,0.8-4.9,0.6-6.6c-1.2,0.2-2,0.1-2.8-0.3c-0.7,0.9-1.3,1.6-1.8,2c-0.9,0.7-1,0.3-0.6-0.4
			c4.7-7.4,5.6-11.3,5.1-12.3c-0.3-0.7,0.3-1.1,1-0.8c0.5,0.2,1.5,0.9,1.8,1.3c0.4,0.4,0.4,0.9,0,1.3c-0.5,0.6-1.4,2.2-1.7,2.7
			c-0.9,1.9-2.2,4-3.4,5.7c1.5-0.2,4.1-0.9,5.6-1.6c1.7-0.8,2.4-0.9,3.4-0.5c1.1,0.5,1,1,0.1,1.4c-0.8,0.3-3,1-5.5,1.4
			c1.3,0.9,1.4,1.3,1.1,2c-0.3,0.7-0.6,1.7-0.8,2.8c-0.2,1.4-0.5,2.5-1,3.6c2.6,2.9,5,3.9,9.6,5.3c1,0.3,0.9,0.9,0.1,1
			C27.5,117.2,26.8,117.1,25.9,116z"/>
	</g>
</g>
</svg>
