<?xml version="1.0" encoding="utf-8"?>
<!-- Generator: Adobe Illustrator 21.0.0, SVG Export Plug-In . SVG Version: 6.00 Build 0)  -->
<svg version="1.1" id="Layer_1" xmlns="http://www.w3.org/2000/svg" xmlns:xlink="http://www.w3.org/1999/xlink" x="0px" y="0px"
	 viewBox="0 0 280.5 15.3" style="enable-background:new 0 0 280.5 15.3;" xml:space="preserve">
<style type="text/css">
	.st0{fill:#ffffff;}
</style>
<path class="st0" d="M279.4,0.5c-0.1,0-0.3-0.1-0.4-0.1c-0.4,0-0.7,0-1.1,0.1c-0.4,0-0.8,0.1-1.2-0.2c-0.1,0-0.2-0.1-0.2-0.1
	c-0.4,0.1-0.9-0.1-1.3-0.1c-0.1,0-0.2,0-0.2,0c-0.9-0.3-1.8-0.1-2.7,0c-0.4,0-0.9,0.1-1.3-0.1c-0.1-0.1-0.3,0-0.4,0
	c-2,0.1-4,0.3-6,0.4c-0.3,0-0.7-0.2-1-0.1c-0.3,0.1-0.6,0.2-1,0.2c-0.5,0-1,0.1-1.4,0.1c-0.3,0-0.6,0-0.8,0.2c0,0-0.1,0.1-0.2,0.1
	c-0.7,0-1.5,0.1-2.2,0.1c-0.4,0-0.8-0.2-1.2-0.1c-0.1,0-0.3,0-0.4,0.1c-0.2,0.1-0.3,0.1-0.5,0c-0.2-0.1-0.4-0.1-0.6,0
	c-1,0.1-2,0.1-2.9,0.2c-0.2,0-0.4-0.1-0.7-0.1c-0.1,0-0.3,0-0.4,0c-0.5,0-0.9,0-1.4,0c-0.1,0-0.2,0-0.2,0c-0.3,0.4-0.8,0.3-1.2,0.3
	c-0.3,0-0.6,0-0.9,0.1c-0.1,0-0.2,0-0.3,0c-0.5-0.3-1-0.1-1.4-0.1c-0.7,0-1.3,0.1-2,0.1c-0.2,0-0.4-0.1-0.6-0.1
	c-0.5,0-0.5,0-0.8,0.5c-0.2,0-0.5,0-0.8,0.1c-0.3,0-0.6,0-0.9,0.2c-0.2,0.1-0.5,0.1-0.7,0.1c-1.1,0.1-2.2,0.2-3.3,0.2
	c-0.3,0-0.5-0.1-0.8-0.1c-0.1,0-0.3,0-0.4,0c-0.5,0.1-1.1,0.2-1.6,0.2c-0.7,0.1-1.5,0.1-2.2,0.1c-0.3,0-0.6,0.1-0.8-0.1
	c-0.1,0-0.2,0-0.3,0c-0.7,0-1.3,0.1-2,0.1c-0.2,0-0.5-0.1-0.7-0.1c-0.2,0.1-0.4,0.2-0.6,0.2c-0.6,0.1-1.1,0.1-1.7,0.1
	c-0.2,0-0.4,0-0.5-0.1c-0.3-0.1-0.6-0.1-0.9,0.1C224,2.9,223.8,3,223.7,3c-0.4,0.1-0.8,0.1-1.2,0.3c-0.3,0.2-0.8,0.1-1.2,0.1
	c-0.2,0-0.5,0-0.7,0c-0.2,0-0.5-0.1-0.7-0.1c-0.1,0-0.3-0.1-0.4,0c-0.5,0-1.1,0.1-1.6,0.1c-0.3,0-0.6,0.1-0.9-0.1
	c-0.2-0.1-0.6,0-0.9,0c-0.3,0-0.6,0-0.8-0.2c-0.3-0.3-0.6-0.2-0.9-0.1c-0.1,0-0.1,0.1-0.2,0.1c-0.7,0.1-1.3,0.3-2,0.1
	c-0.1,0-0.3-0.1-0.4-0.1c-0.3,0-0.5,0.2-0.8,0.2c-0.2,0-0.5-0.1-0.7-0.1c-0.3,0-0.5,0-0.7,0.2c-0.2,0.2-0.6,0.1-0.9,0.1
	c-0.3,0.1-0.6,0.1-1,0.2c-0.5-0.1-1.2-0.3-1.9-0.3c-0.7,0-1.4,0.1-2,0.1c0,0.4,0.2,0.2,0.4,0.4c0,0.2,0,0.5,0.1,0.8
	c-1.2,0.1-2.3,0.1-3.5,0.2c0-0.3,0-0.5-0.1-0.8c-0.1,0-0.2-0.1-0.3-0.1c-0.1,0-0.3,0.1-0.4,0c-0.4-0.2-0.7-0.2-1,0.1
	c0,0-0.1,0-0.2,0c-0.8-0.4-1.6,0-2.4,0c-0.7,0-1.3,0.2-2-0.1c-0.3-0.1-0.6-0.1-0.9-0.2c-0.1,0-0.2,0-0.3,0.1
	c0.1,0.2,0.2,0.4,0.3,0.5c-0.3,0.3-0.7,0.4-1.1,0.4c-0.3,0-0.6-0.1-0.8,0.3c-0.1,0.1-0.4,0.1-0.6,0.1c-0.4-0.6-0.7-0.7-1.3-0.4
	c0.1,0.4,0.5-0.1,0.7,0.3c-0.4,0-0.7,0-1.1,0.1c-0.4,0.1-0.7-0.1-1-0.5c-0.2,0.1-0.3,0.2-0.4,0.3c-0.3-0.3-0.6-0.6-0.9-1
	c0,0,0,0,0-0.1c0.2,0,0.3,0.1,0.5,0.1c-0.2-0.3-0.4-0.5-0.8-0.4c-0.5,0.1-1.1,0.2-1.7,0.1c-0.9-0.2-1.9,0-2.8,0c-0.1,0-0.1,0-0.2,0
	c-0.5-0.3-1-0.1-1.5-0.1c-0.5,0-1,0-1.5,0.3c-0.3,0.1-0.6,0.2-1,0.2c-0.5,0-1.1,0.2-1.6-0.1c-0.1,0-0.2,0-0.3,0
	c-0.5,0-1.1,0.1-1.6,0.1c-0.1,0-0.2,0.1-0.3,0.1c0.5,0.2,1,0,1.4,0c0.5,0,1,0,1.5,0.3c-0.5,0.2-0.9,0.2-1.3,0.1
	c-0.2,0-0.3-0.1-0.5-0.1c-0.7,0-1.4,0.1-2.1,0.1c-0.8,0-1.6-0.1-2.4-0.2c1-0.3,2-0.2,3.1-0.4c-0.2-0.1-0.3-0.2-0.4-0.2
	c-1,0.1-2,0-2.9,0.2c-0.8,0.1-1.5,0-2.3,0.1c0,0-0.1,0-0.1,0c-0.8-0.4-1.6,0-2.4-0.1c0,0.2,0.2,0.2,0.4,0.2c0.4,0,0.8,0,1.1-0.1
	c0.1,0,0.2,0,0.5,0.1c-0.3,0.2-0.6,0.3-0.7,0.4c-0.4,0-0.7-0.1-0.9-0.1c-0.4,0-0.7-0.1-1.1-0.1c-0.4,0-0.8,0-1.3,0
	c-0.7,0.1-1.4,0.1-2.2-0.1c-0.2,0-0.4,0-0.7,0c0.2-0.1,0.2-0.2,0.3-0.2c0.6,0,1.2,0,1.8,0c0.2,0,0.3,0.1,0.5-0.2
	c-0.1,0-0.2-0.1-0.3-0.1c-0.4,0-0.8,0-1.3,0c-0.2,0-0.5,0-0.7,0c-0.1,0-0.1-0.1-0.2,0c-0.5,0.4-1,0-1.5,0c-0.5,0-0.9-0.1-1.5-0.2
	c0.6-0.3,1-0.1,1.5,0c0-0.3-0.2-0.4-0.4-0.4c-1,0.1-1.9-0.3-2.9-0.1c-0.1,0-0.3,0-0.4-0.1c-0.3-0.1-0.5-0.1-0.6,0.1c0,0,0,0,0,0
	c0,0,0,0,0,0c0.6,0.2,1.2,0.3,1.8,0.2c0.1,0,0.3,0,0.4,0.1c0.1,0,0.1,0.2,0.2,0.3c-0.1,0-0.2,0.1-0.3,0.1c-0.2-0.2-0.5-0.1-0.8-0.1
	c-0.2,0-0.5,0-0.7,0c-0.3,0-0.6-0.2-0.7-0.5c0,0,0,0,0,0c0,0,0,0,0,0c-0.9-0.2-1.8-0.4-2.8-0.3c-0.4,0.1-0.9,0.1-1.3-0.1
	c-0.1-0.1-0.3,0-0.4,0c-0.4,0-0.9,0.1-1.3,0.1c-0.3,0-0.6,0.1-0.8-0.1c-0.1-0.1-0.2,0-0.3,0c-0.3,0-0.5,0-0.7-0.2
	c-0.1-0.1-0.3-0.1-0.5-0.1c-0.6,0-1.2,0.1-1.9-0.1c-0.4-0.1-0.9,0-1.3,0c-0.3,0-0.7-0.1-1-0.1c-0.7,0-1.3,0-2,0.1
	c-0.7,0-1.3-0.1-2-0.1c-0.3,0-0.7,0.1-1,0.1c-0.4,0-0.9-0.1-1.3,0c-0.6,0.2-1.2,0.1-1.9,0.1c-0.2,0-0.4,0-0.5,0.1
	c-0.2,0.2-0.4,0.3-0.7,0.2c-0.1,0-0.3,0-0.3,0c-0.3,0.2-0.5,0.1-0.8,0.1c-0.4,0-0.9-0.1-1.3-0.1c-0.1,0-0.3,0-0.4,0
	c-0.4,0.2-0.9,0.2-1.3,0.1c-0.9-0.1-1.8,0.1-2.8,0.3c0,0,0,0,0,0c0,0,0,0,0,0c-0.1,0.4-0.3,0.5-0.7,0.5c-0.2,0-0.5,0-0.7,0
	c-0.3,0-0.5-0.1-0.8,0.1c0,0-0.2,0-0.3-0.1c0.1-0.1,0.1-0.2,0.2-0.3c0.1-0.1,0.3-0.1,0.4-0.1c0.6,0.1,1.2,0,1.8-0.2c0,0,0,0,0,0
	c0,0,0,0,0,0c-0.2-0.2-0.4-0.3-0.6-0.1C125.4,3,125.2,3,125.1,3c-1-0.2-1.9,0.2-2.9,0.1c-0.2,0-0.4,0.1-0.4,0.4
	c0.5-0.1,0.9-0.2,1.5,0c-0.6,0.1-1.1,0.3-1.5,0.2c-0.5-0.1-1,0.4-1.5,0c0,0-0.1,0-0.2,0c-0.2,0-0.5,0-0.7,0c-0.4,0-0.8,0-1.3,0
	c-0.1,0-0.2,0.1-0.3,0.1c0.1,0.3,0.3,0.2,0.5,0.2c0.6,0,1.2,0,1.8,0c0.1,0,0.1,0.1,0.3,0.2c-0.3,0-0.5,0-0.7,0
	c-0.7,0.2-1.4,0.1-2.2,0.1c-0.4,0-0.8,0-1.3,0c-0.4,0-0.8,0.1-1.1,0.1c-0.3,0-0.6,0.1-0.9,0.1c-0.1-0.1-0.4-0.2-0.7-0.4
	c0.3,0,0.4-0.1,0.5-0.1c0.4,0,0.8,0,1.1,0.1c0.2,0,0.3,0,0.4-0.2c-0.8,0-1.6-0.3-2.4,0.1c0,0-0.1,0-0.1,0c-0.8-0.2-1.5,0-2.3-0.1
	c-1-0.2-1.9-0.2-2.9-0.2c-0.1,0-0.2,0.1-0.4,0.2c1.1,0.2,2.1,0.1,3.1,0.4c-0.8,0.1-1.6,0.2-2.4,0.2c-0.7,0-1.4-0.1-2.1-0.1
	c-0.2,0-0.3,0.1-0.5,0.1c-0.4,0.1-0.8,0.1-1.3-0.1c0.5-0.4,1-0.3,1.5-0.3c0.5,0,1,0.1,1.4,0C107,4.1,106.9,4,106.8,4
	c-0.5,0-1.1-0.1-1.6-0.1c-0.1,0-0.2,0-0.3,0c-0.5,0.3-1.1,0.1-1.6,0.1c-0.3,0-0.7,0-1-0.2c-0.5-0.2-1-0.2-1.5-0.3
	c-0.5,0-1-0.2-1.5,0.1c0,0-0.1,0-0.2,0c-0.9,0-1.8-0.2-2.8,0c-0.5,0.1-1.1,0-1.7-0.1c-0.4-0.1-0.6,0.1-0.8,0.4
	c0.2,0,0.3-0.1,0.5-0.1c0,0,0,0,0,0.1c-0.3,0.3-0.6,0.6-0.9,1C93.3,5,93.2,4.9,93,4.8c-0.2,0.4-0.5,0.6-1,0.5
	c-0.4-0.1-0.7-0.1-1.1-0.1c0.2-0.4,0.6,0.1,0.7-0.3c-0.6-0.3-0.9-0.2-1.3,0.4c-0.2,0-0.6,0-0.6-0.1c-0.2-0.4-0.6-0.3-0.8-0.3
	c-0.4,0-0.8-0.1-1.1-0.4c0.1-0.2,0.2-0.3,0.3-0.5c-0.1,0-0.2-0.1-0.3-0.1C87.4,3.9,87,3.9,86.7,4c-0.7,0.2-1.4,0-2,0.1
	c-0.8,0-1.6-0.3-2.4,0c0,0-0.1,0-0.2,0c-0.3-0.3-0.6-0.3-1-0.1c-0.1,0.1-0.3,0-0.4,0c-0.1,0-0.2,0-0.3,0.1c0,0.3,0,0.6-0.1,0.8
	c-1.2-0.1-2.3-0.2-3.5-0.2c0-0.3,0-0.6,0.1-0.8c0.1-0.1,0.4,0,0.4-0.4c-0.7,0-1.4-0.1-2-0.1c-0.7,0-1.3,0.2-1.9,0.3
	c-0.4-0.1-0.7-0.2-1-0.2c-0.3-0.1-0.7,0-0.9-0.1c-0.2-0.2-0.5-0.2-0.7-0.2c-0.2,0-0.5,0.1-0.7,0.1c-0.3,0-0.5-0.2-0.8-0.2
	c-0.1,0-0.3,0.1-0.4,0.1c-0.7,0.1-1.3,0-2-0.1c-0.1,0-0.1-0.1-0.2-0.1c-0.3-0.1-0.6-0.1-0.9,0.1c-0.2,0.2-0.5,0.3-0.8,0.2
	c-0.3,0-0.7-0.1-0.9,0c-0.3,0.2-0.6,0.1-0.9,0.1c-0.5,0-1.1-0.1-1.6-0.1c-0.1,0-0.3,0-0.4,0c-0.2,0-0.5,0.1-0.7,0.1
	c-0.2,0-0.5,0-0.7,0c-0.4,0-0.9,0.1-1.2-0.1C58,3.1,57.6,3.1,57.2,3c-0.1,0-0.2-0.1-0.4-0.1c-0.3-0.2-0.6-0.2-0.9-0.1
	c-0.2,0.1-0.4,0.1-0.5,0.1c-0.6,0-1.1,0-1.7-0.1c-0.2,0-0.5-0.1-0.6-0.2c-0.3,0-0.5,0.1-0.7,0.1c-0.7,0-1.3-0.1-2-0.1
	c-0.1,0-0.2,0-0.3,0c-0.3,0.2-0.5,0.1-0.8,0.1c-0.7,0-1.5-0.1-2.2-0.1c-0.5-0.1-1.1-0.2-1.6-0.2c-0.1,0-0.3,0-0.4,0
	c-0.3,0-0.5,0.1-0.8,0.1c-1.1-0.1-2.2-0.1-3.3-0.2c-0.2,0-0.5,0-0.7-0.1c-0.3-0.2-0.6-0.2-0.9-0.2c-0.3,0-0.5,0-0.8-0.1
	c-0.3-0.5-0.3-0.5-0.8-0.5c-0.2,0-0.4,0.1-0.6,0.1c-0.7,0-1.3-0.1-2-0.1c-0.5,0-1-0.2-1.4,0.1c-0.1,0.1-0.2,0-0.3,0
	c-0.3,0-0.6,0-0.9-0.1c-0.4-0.1-0.9,0.1-1.2-0.3c0,0-0.1,0-0.2,0c-0.5,0-0.9,0-1.4,0c-0.1,0-0.3,0-0.4,0c-0.2,0-0.4,0.1-0.7,0.1
	c-1,0-2-0.1-2.9-0.2c-0.2,0-0.4,0-0.6,0c-0.2,0.1-0.4,0.1-0.5,0c-0.1-0.1-0.3-0.1-0.4-0.1C23.7,0.8,23.3,1,22.9,1
	c-0.7,0-1.5-0.1-2.2-0.1c-0.1,0-0.2,0-0.2-0.1c-0.2-0.3-0.5-0.2-0.8-0.2c-0.5,0-1-0.1-1.4-0.1c-0.3,0-0.7-0.1-1-0.2
	c-0.3-0.1-0.7,0.1-1,0.1c-2-0.1-4-0.2-6-0.4C10.2,0,10,0,9.9,0C9.5,0.2,9.1,0.1,8.6,0.1c-0.9,0-1.8-0.3-2.7,0c-0.1,0-0.2,0-0.2,0
	C5.2,0.1,4.8,0.4,4.4,0.2c-0.1,0-0.2,0-0.2,0.1C3.8,0.6,3.4,0.5,3,0.5c-0.4,0-0.7-0.1-1.1-0.1c-0.1,0-0.3,0-0.4,0.1
	C1.1,0.5,0.8,1,0.4,0.6c0,0-0.1,0-0.1,0c-0.1,0-0.2,0-0.3,0v12.2c0.8,0,1.5,0.1,2.3,0.1c0.2,0,0.3,0,0.5,0c0.3,0,0.6-0.1,0.9-0.1
	c1,0,2.1,0.2,3.1,0.1c0.4-0.1,0.7,0,1.1,0c2.1,0.1,4.2,0.2,6.3,0.4c0.2,0,0.5,0,0.7-0.1c0.5-0.2,1-0.1,1.5,0
	c0.3,0.1,0.6,0.2,0.9,0.2c0.9,0.1,1.8,0.1,2.6,0.2c0.2,0,0.4,0,0.6-0.1c0.3-0.2,0.6-0.2,0.9-0.1c0.4,0,0.8,0.1,1.1,0.1
	c0.8,0,1.7,0,2.5-0.1c0.1,0,0.2-0.1,0.3-0.1c0.3-0.1,0.7-0.2,0.9-0.1c0.7,0.2,1.4,0.1,2.2,0.2c0.1,0,0.3,0,0.4-0.1
	c0.4-0.1,0.9-0.3,1.3-0.3c1.3,0.2,2.5,0,3.8,0c0.1,0,0.2,0,0.2-0.1c0.2-0.2,0.5-0.1,0.8-0.1c0.5,0,1,0,1.4,0.1c0.1,0,0.3,0,0.4,0
	c0.2,0,0.5-0.1,0.7-0.1c0.4,0,0.7,0,1.1,0.1c0.1,0,0.3,0,0.4,0.1c0.5,0.4,1.2,0.3,1.8,0.4c0.6,0.1,1.3,0,1.9,0c0.4,0,0.7,0.1,1-0.1
	c0.1-0.1,0.2,0,0.3,0c1.6,0.1,3.2,0.2,4.9,0.3c0.2,0,0.3,0.1,0.5,0.1c0.6,0.3,1.2,0.3,1.8,0.2c0.3,0,0.6-0.1,0.9-0.1
	c0.6,0,1.1,0,1.7,0.1c0.6,0.1,1.2-0.1,1.7-0.2c0.9-0.2,1.8-0.1,2.7,0.2c0.3-0.1,0.6-0.2,0.9-0.4c0.4-0.2,0.9-0.5,1.4-0.3
	c0.2,0.1,0.3,0.1,0.5,0.1c0.5,0.1,1,0.1,1.5,0c0.6-0.1,1.2-0.1,1.8,0.1c0.4,0.1,0.8,0.2,1.3,0.3c0.8,0.1,1.7,0.1,2.5,0.2
	c0.4,0,0.8,0.1,1.2,0c0.5-0.2,1.1-0.1,1.6-0.1c0.1,0,0.1,0,0.2,0c0.1,0,0.2-0.1,0.3-0.2c0.3-0.3,0.5-0.4,0.9-0.3
	c0.2-0.1,0.4-0.4,0.6-0.4c0.5,0,0.9,0,1.3-0.2c0.5-0.1,0.9,0,1.4-0.1c0.4-0.1,0.8-0.3,1.3-0.5c-0.1-0.1-0.2-0.1-0.2-0.2
	c-0.1-0.1-0.1-0.2-0.1-0.3c0.1-0.1,0.2-0.2,0.3-0.2c0.4,0,0.7,0.1,1.1,0.1c0,0,0,0.1,0,0.1c-0.2,0-0.3,0.1-0.5,0.1
	c-0.2,0-0.3-0.1-0.5,0.2c0.7,0.1,1.4,0.2,2,0.7c-0.2,0.1-0.3,0.2-0.4,0.3c0,0.2,0.1,0.4,0.1,0.6c0.1-0.1,0.2-0.2,0.3-0.2
	c0.3-0.1,0.7,0.2,0.6,0.4c-0.1,0.3,0.3,0.4,0.1,0.7c0.1,0.1,0.2,0.1,0.3,0.2c0.1,0,0.2-0.1,0.3-0.1c0.2,0.6,1.6,0.9,2.2,0.5
	c0.2,0.3,0.5,0.3,0.7,0.2c0.4-0.2,0.6-0.1,0.8,0.1c0.3,0,0.5-0.4,0.8,0c0,0,0.1,0,0.1,0c0.4-0.3,0.8-0.1,1.1-0.1
	c0.2,0,0.4,0,0.4-0.3c0,0,0.1-0.1,0.1-0.1c0.1,0.1,0.2,0.2,0.3,0.4c0.1-0.2,0.2-0.4,0.3-0.6c0.5,0,1.1,0.1,1.6,0.1
	c0.3,0,0.5,0.1,0.6-0.2c0-0.1,0.2-0.1,0.2-0.1c0.6,0,1.2,0,1.8,0c0.3,0,0.5-0.1,0.7-0.3c0.2,0.3,0.4,0.4,0.7,0.1
	c0.1-0.1,0.2,0,0.3,0c0.3,0,0.6,0,0.9,0c0.4,0,0.7-0.1,0.9-0.5c0.1-0.2,0.3-0.4,0.6-0.3c0.2,0,0.3,0,0.5,0c0.3,0,0.6-0.1,1-0.1
	c0.4,0,0.8,0.1,1.3,0.1c0.1,0,0.3,0,0.4,0c0.7-0.3,1.3-0.2,1.9,0c1.1,0.4,2.2,0.2,3.3,0.4c0,0,0.1,0,0.1,0c0.4-0.2,0.7-0.1,1.1-0.1
	c0.4,0,0.8,0.1,1.1,0c0.7-0.2,1.3,0,1.9-0.1c0.1,0,0.2,0,0.2,0.1c0.3,0.3,0.6,0.3,1,0.3c0.3,0,0.5,0,0.8,0.2c0.1,0.1,0.3,0.1,0.4,0
	c0.7-0.4,1.3-0.3,2,0.1c0.5-0.6,0.6-0.6,1.1-0.3c-0.1,0.3-0.5,0-0.6,0.4c0.3,0,0.6,0.1,0.8,0c0.3-0.2,0.6-0.1,0.9-0.1
	c0.6,0,1.3,0.2,1.9-0.1c0.1,0,0.2,0,0.3,0.1c0.5,0.2,1,0.6,1.6,0.5c0.1,0,0.1,0.1,0.2,0.1c0.6,0.3,1.2,0.3,1.7,0.2
	c0.3-0.1,0.6-0.1,0.9-0.1c0.4,0,0.9,0.1,1.3-0.1c0.1-0.1,0.3,0,0.4,0c0.7,0,1.4,0.1,2.1,0.1c0.1,0,0.3,0,0.4,0.1
	c0.2,0.2,0.5,0.2,0.8,0.2c0.2,0,0.5,0,0.7,0c0.1,0,0.3,0.1,0.4,0c0.7-0.3,1.5,0,2.2-0.2c0.7-0.2,1.6,0.2,2.3-0.2c0.1,0,0.3,0,0.4,0
	c1.1,0.1,2.2,0.2,3.3,0.3c0.2,0,0.5,0,0.7,0c0.3,0,0.5-0.2,0.8-0.2c0.9,0,1.8,0,2.6,0c0.2,0,0.4-0.1,0.6-0.1c0,0,0.1,0.1,0.1,0.1
	c0.1-0.1,0.1-0.1,0.2-0.1c0.1,0,0.1,0,0.2,0.1c0-0.1,0.1-0.1,0.1-0.1c0.2,0,0.4,0.1,0.6,0.1c0.9,0,1.8,0,2.6,0
	c0.3,0,0.5,0.1,0.8,0.2c0.2,0,0.5,0,0.7,0c1.1-0.1,2.2-0.2,3.3-0.3c0.1,0,0.3-0.1,0.4,0c0.8,0.3,1.6-0.1,2.3,0.2
	c0.7,0.2,1.5-0.1,2.2,0.2c0.1,0.1,0.3,0,0.4,0c0.2,0,0.5,0,0.7,0c0.3,0,0.5,0,0.8-0.2c0.1-0.1,0.3-0.1,0.4-0.1
	c0.7-0.1,1.4-0.1,2.1-0.1c0.1,0,0.3,0,0.4,0c0.4,0.2,0.9,0.1,1.3,0.1c0.3,0,0.6,0,0.9,0.1c0.6,0.1,1.2,0.1,1.7-0.2
	c0.1,0,0.1-0.1,0.2-0.1c0.6,0.1,1.1-0.3,1.6-0.5c0.1,0,0.2-0.1,0.3-0.1c0.6,0.3,1.2,0.1,1.9,0.1c0.3,0,0.6,0,0.9,0.1
	c0.2,0.1,0.5,0,0.8,0c-0.1-0.4-0.5-0.1-0.6-0.4c0.5-0.3,0.6-0.3,1.1,0.3c0.6-0.4,1.3-0.5,2-0.1c0.1,0.1,0.3,0,0.4,0
	c0.2-0.2,0.5-0.2,0.8-0.2c0.3,0,0.7,0,1-0.3c0,0,0.1-0.1,0.2-0.1c0.6,0,1.3-0.1,1.9,0.1c0.4,0.1,0.8,0,1.1,0c0.4,0,0.8-0.1,1.1,0.1
	c0,0,0.1,0,0.1,0c1.1-0.1,2.2,0,3.3-0.4c0.6-0.2,1.3-0.4,1.9,0c0.1,0.1,0.3,0,0.4,0c0.4,0,0.8-0.1,1.3-0.1c0.3,0,0.6,0.1,1,0.1
	c0.2,0,0.3,0.1,0.5,0c0.3,0,0.5,0.1,0.6,0.3c0.2,0.4,0.5,0.5,0.9,0.5c0.3,0,0.6,0,0.9,0c0.1,0,0.3,0,0.3,0c0.3,0.3,0.5,0.1,0.7-0.1
	c0.2,0.2,0.4,0.3,0.7,0.3c0.6,0.1,1.2,0,1.8,0c0.1,0,0.2,0.1,0.2,0.1c0.1,0.3,0.4,0.3,0.6,0.2c0.5-0.1,1.1-0.1,1.6-0.1
	c0.1,0.2,0.2,0.4,0.3,0.6c0.1-0.2,0.2-0.3,0.3-0.4c0,0,0.1,0.1,0.1,0.1c0.1,0.2,0.2,0.3,0.4,0.3c0.4,0,0.8-0.2,1.1,0.1
	c0,0,0.1,0,0.1,0c0.3-0.3,0.5,0,0.8,0c0.2-0.2,0.4-0.4,0.8-0.1c0.2,0.1,0.5,0.1,0.7-0.2c0.5,0.3,1.9,0.1,2.2-0.5
	c0.1,0,0.2,0.1,0.3,0.1c0.1,0,0.2-0.1,0.3-0.2c-0.2-0.3,0.3-0.4,0.1-0.7c-0.1-0.2,0.3-0.5,0.6-0.4c0.1,0,0.2,0.1,0.3,0.2
	c0.1-0.2,0.1-0.4,0.1-0.6c-0.1-0.1-0.2-0.2-0.4-0.3c0.6-0.5,1.2-0.6,2-0.7c-0.1-0.2-0.3-0.2-0.5-0.2c-0.2,0-0.3,0-0.5-0.1
	c0,0,0-0.1,0-0.1c0.4,0,0.7-0.1,1.1-0.1c0.1,0,0.2,0.1,0.3,0.2c0,0.1-0.1,0.2-0.1,0.3c0,0.1-0.1,0.1-0.2,0.2
	c0.4,0.2,0.8,0.4,1.3,0.5c0.5,0.1,1,0,1.4,0.1c0.4,0.1,0.9,0.2,1.3,0.2c0.2,0,0.4,0.2,0.6,0.4c0.3-0.1,0.6,0,0.9,0.3
	c0.1,0.1,0.2,0.1,0.3,0.2c0,0,0.1,0,0.2,0c0.5,0,1-0.1,1.6,0.1c0.4,0.1,0.8,0.1,1.2,0c0.8,0,1.7-0.1,2.5-0.2c0.4,0,0.8-0.1,1.3-0.3
	c0.6-0.2,1.2-0.2,1.8-0.1c0.5,0.1,1,0,1.5,0c0.2,0,0.3-0.1,0.5-0.1c0.5-0.2,1,0.1,1.4,0.3c0.3,0.2,0.6,0.3,0.9,0.4
	c0.9-0.3,1.8-0.4,2.7-0.2c0.6,0.1,1.1,0.3,1.7,0.2c0.5-0.1,1.1-0.1,1.7-0.1c0.3,0,0.6,0.1,0.9,0.1c0.6,0.1,1.2,0.1,1.8-0.2
	c0.1-0.1,0.3-0.1,0.5-0.1c1.6-0.1,3.2-0.2,4.9-0.3c0.1,0,0.3,0,0.3,0c0.3,0.3,0.7,0.1,1,0.1c0.6,0,1.3,0.1,1.9,0
	c0.6-0.1,1.2,0,1.8-0.4c0.1-0.1,0.3-0.1,0.4-0.1c0.4,0,0.7-0.1,1.1-0.1c0.2,0,0.5,0.1,0.7,0.1c0.1,0,0.3,0,0.4,0c0.5,0,1,0,1.4-0.1
	c0.3,0,0.5-0.1,0.8,0.1c0.1,0,0.1,0.1,0.2,0.1c1.3,0,2.5,0.2,3.8,0c0.4-0.1,0.9,0.2,1.3,0.3c0.1,0,0.3,0.1,0.4,0.1
	c0.7-0.1,1.4,0,2.2-0.2c0.3-0.1,0.6,0.1,0.9,0.1c0.1,0,0.2,0.1,0.3,0.1c0.8,0,1.7,0.1,2.5,0.1c0.4,0,0.8,0,1.1-0.1
	c0.3,0,0.6,0,0.9,0.1c0.1,0.1,0.4,0.1,0.6,0.1c0.9-0.1,1.8-0.1,2.6-0.2c0.3,0,0.6-0.1,0.9-0.2c0.5-0.1,1-0.3,1.5,0
	c0.2,0.1,0.5,0.1,0.7,0.1c2.1-0.1,4.2-0.2,6.3-0.4c0.4,0,0.7,0,1.1,0c1,0.2,2.1,0,3.1-0.1c0.3,0,0.6,0.1,0.9,0.1c0.2,0,0.3,0,0.5,0
	c0.6,0,1.2-0.1,1.8-0.1l0-12.2C279.9,0.7,279.8,0.5,279.4,0.5z"/>
</svg>
