<?xml version="1.0" encoding="utf-8"?>
<!-- Generator: Adobe Illustrator 21.0.0, SVG Export Plug-In . SVG Version: 6.00 Build 0)  -->
<svg version="1.1" id="Layer_1" xmlns="http://www.w3.org/2000/svg" xmlns:xlink="http://www.w3.org/1999/xlink" x="0px" y="0px"
	 viewBox="0 0 120.2 72.9" style="enable-background:new 0 0 120.2 72.9;" xml:space="preserve">
<style type="text/css">
	.st0{fill:#ADA5A7;}
</style>
<g>
	<path class="st0" d="M28.4,69.1c18.3-2.3,20.4-29.2-3.9-27.1c-3.2,0.2-1.2-10-1.2-10c26.5-5.7,18.1-28.2,7-28.6
		c-7.1-0.2-15.2,7.9-10.9,18.9c-15.2-3-6.3-19.1,6.4-21.6c25.7-5.1,39.2,20.8,9,32.1c29.9,7.7,20.8,42-14.7,40
		C-4.4,71.5-4.3,50.7,8.6,45.5C4,51.6,7.6,71.6,28.4,69.1z"/>
	<path class="st0" d="M74.5,65.1C41.7,62.5,51.8,1.5,86.4,4.4C119.9,7.3,110.2,68,74.5,65.1z M95.8,33.9
		C94.5,19.8,87.7,8.4,78.2,9.2S64.5,21.4,65.9,35.6c1.3,14.1,7.6,25.8,17,25C92.4,59.7,97.1,48.1,95.8,33.9z"/>
</g>
<g>
	<path class="st0" d="M116.1,58.2c0.6,0,1.2,0.1,1.7,0.3c0.5,0.2,0.9,0.4,1.3,0.8s0.6,0.7,0.8,1.2c0.2,0.5,0.3,1,0.3,1.6V65h-8v-2.9
		c0-0.6,0.1-1.1,0.3-1.6c0.2-0.5,0.5-0.9,0.8-1.2s0.8-0.6,1.3-0.8C114.9,58.3,115.5,58.2,116.1,58.2z M116.1,58.8
		c-0.6,0-1.1,0.1-1.5,0.2c-0.4,0.2-0.8,0.4-1.1,0.7c-0.3,0.3-0.5,0.6-0.7,1s-0.2,0.8-0.2,1.3v2.3h7.1v-2.3c0-0.5-0.1-0.9-0.2-1.3
		s-0.4-0.7-0.7-1c-0.3-0.3-0.7-0.5-1.1-0.7C117.1,58.9,116.6,58.8,116.1,58.8z"/>
	<path class="st0" d="M120.1,47.4v0.4c0,0.1,0,0.1,0,0.1s-0.1,0.1-0.1,0.1l-2.3,0.9v3.9l2.3,0.9c0,0,0.1,0,0.1,0.1c0,0,0,0.1,0,0.1
		v0.4l-8-3.3v-0.6L120.1,47.4z M117.2,52.8v-3.6l-4,1.6c-0.1,0-0.1,0.1-0.2,0.1s-0.2,0.1-0.3,0.1c0.1,0,0.2,0.1,0.3,0.1
		s0.2,0.1,0.2,0.1L117.2,52.8z"/>
	<path class="st0" d="M116.8,41.2h3.3v0.6h-3.3l-4.7,3v-0.5c0-0.1,0-0.1,0-0.1s0.1-0.1,0.1-0.1l3.7-2.3c0.1-0.1,0.2-0.1,0.3-0.1
		c0.1,0,0.2-0.1,0.2-0.1c-0.1,0-0.2-0.1-0.2-0.1c-0.1,0-0.2-0.1-0.3-0.1l-3.7-2.3c0,0-0.1-0.1-0.1-0.1c0,0,0-0.1,0-0.1v-0.5
		L116.8,41.2z"/>
	<path class="st0" d="M113.1,30c0.1,0,0.1,0.1,0.1,0.1c0,0,0,0.1-0.1,0.2c-0.1,0.1-0.1,0.2-0.2,0.3c-0.1,0.1-0.2,0.3-0.2,0.5
		c-0.1,0.2-0.1,0.4-0.1,0.7c0,0.3,0,0.5,0.1,0.8c0.1,0.2,0.2,0.4,0.3,0.6c0.1,0.1,0.3,0.3,0.5,0.3s0.4,0.1,0.6,0.1
		c0.3,0,0.5-0.1,0.7-0.2s0.3-0.3,0.5-0.5c0.1-0.2,0.2-0.4,0.3-0.6s0.2-0.5,0.3-0.7s0.2-0.5,0.3-0.7s0.2-0.5,0.4-0.6
		c0.2-0.2,0.3-0.3,0.6-0.5c0.2-0.1,0.5-0.2,0.8-0.2c0.3,0,0.7,0.1,0.9,0.2c0.3,0.1,0.6,0.3,0.8,0.5c0.2,0.2,0.4,0.5,0.5,0.8
		s0.2,0.7,0.2,1.1c0,0.5-0.1,1-0.3,1.4c-0.2,0.4-0.4,0.7-0.8,1l-0.2-0.2c-0.1,0-0.1-0.1-0.1-0.2c0,0,0-0.1,0.1-0.1
		c0-0.1,0.1-0.1,0.2-0.2c0.1-0.1,0.1-0.2,0.2-0.3s0.1-0.2,0.2-0.4c0.1-0.1,0.1-0.3,0.2-0.5c0-0.2,0.1-0.4,0.1-0.6
		c0-0.3,0-0.6-0.1-0.8c-0.1-0.2-0.2-0.5-0.4-0.6c-0.2-0.2-0.4-0.3-0.6-0.4c-0.2-0.1-0.5-0.1-0.7-0.1c-0.3,0-0.5,0.1-0.7,0.2
		c-0.2,0.1-0.3,0.3-0.5,0.5s-0.2,0.4-0.3,0.6c-0.1,0.2-0.2,0.5-0.2,0.7c-0.1,0.3-0.2,0.5-0.3,0.7s-0.2,0.5-0.4,0.6
		c-0.2,0.2-0.3,0.3-0.6,0.5c-0.2,0.1-0.5,0.2-0.9,0.2c-0.3,0-0.5-0.1-0.8-0.2c-0.2-0.1-0.5-0.3-0.7-0.4c-0.2-0.2-0.3-0.4-0.5-0.7
		c-0.1-0.3-0.2-0.6-0.2-1c0-0.4,0.1-0.8,0.2-1.1s0.3-0.6,0.6-0.9L113.1,30z"/>
</g>
</svg>
